HIERARCHY
ROOT Hips
{
	OFFSET -0.001795 -0.223333 0.028219
	CHANNELS 6 Xposition Yposition Zposition Zrotation Yrotation Xrotation
	JOINT LeftUpLeg
	{
		OFFSET 0.069520 -0.091406 -0.006815
		CHANNELS 3 Zrotation Yrotation Xrotation
		JOINT LeftLeg
		{
			OFFSET 0.034277 -0.375199 -0.004496
			CHANNELS 3 Zrotation Yrotation Xrotation
			JOINT LeftFoot
			{
				OFFSET -0.013596 -0.397961 -0.043693
				CHANNELS 3 Zrotation Yrotation Xrotation
				JOINT LeftToe
				{
					OFFSET 0.026358 -0.055791 0.119288
					CHANNELS 3 Zrotation Yrotation Xrotation
					End Site
					{
						OFFSET 0.000000 0.000000 0.000000
					}
				}
			}
		}
	}
	JOINT RightUpLeg
	{
		OFFSET -0.067670 -0.090522 -0.004320
		CHANNELS 3 Zrotation Yrotation Xrotation
		JOINT RightLeg
		{
			OFFSET -0.038290 -0.382569 -0.008850
			CHANNELS 3 Zrotation Yrotation Xrotation
			JOINT RightFoot
			{
				OFFSET 0.015774 -0.398415 -0.042312
				CHANNELS 3 Zrotation Yrotation Xrotation
				JOINT RightToe
				{
					OFFSET -0.025372 -0.048144 0.123348
					CHANNELS 3 Zrotation Yrotation Xrotation
					End Site
					{
						OFFSET 0.000000 0.000000 0.000000
					}
				}
			}
		}
	}
	JOINT Spine
	{
		OFFSET -0.002533 0.108963 -0.026696
		CHANNELS 3 Zrotation Yrotation Xrotation
		JOINT Spine1
		{
			OFFSET 0.005487 0.135180 0.001092
			CHANNELS 3 Zrotation Yrotation Xrotation
			JOINT Spine2
			{
				OFFSET 0.001457 0.052922 0.025425
				CHANNELS 3 Zrotation Yrotation Xrotation
				JOINT Neck
				{
					OFFSET -0.002778 0.213870 -0.042857
					CHANNELS 3 Zrotation Yrotation Xrotation
					JOINT Head
					{
						OFFSET 0.005152 0.064970 0.051349
						CHANNELS 3 Zrotation Yrotation Xrotation
						End Site
						{
							OFFSET 0.000000 0.000000 0.000000
						}
					}
				}
				JOINT LeftShoulder
				{
					OFFSET 0.078845 0.121749 -0.034090
					CHANNELS 3 Zrotation Yrotation Xrotation
					JOINT LeftArm
					{
						OFFSET 0.090977 0.030469 -0.008868
						CHANNELS 3 Zrotation Yrotation Xrotation
						JOINT LeftForeArm
						{
							OFFSET 0.259612 -0.012772 -0.027456
							CHANNELS 3 Zrotation Yrotation Xrotation
							JOINT LeftHand
							{
								OFFSET 0.249234 0.008986 -0.001171
								CHANNELS 3 Zrotation Yrotation Xrotation
								End Site
								{
									OFFSET 0.000000 0.000000 0.000000
								}
							}
						}
					}
				}
				JOINT RightShoulder
				{
					OFFSET -0.081759 0.118833 -0.038615
					CHANNELS 3 Zrotation Yrotation Xrotation
					JOINT RightArm
					{
						OFFSET -0.096012 0.032551 -0.009143
						CHANNELS 3 Zrotation Yrotation Xrotation
						JOINT RightForeArm
						{
							OFFSET -0.253742 -0.013329 -0.021401
							CHANNELS 3 Zrotation Yrotation Xrotation
							JOINT RightHand
							{
								OFFSET -0.255298 0.007772 -0.005559
								CHANNELS 3 Zrotation Yrotation Xrotation
								End Site
								{
									OFFSET 0.000000 0.000000 0.000000
								}
							}
						}
					}
				}
			}
		}
	}
}
MOTION
Frames: 7
Frame Time: 0.050000
-0.277459 0.171097 1.341801 -1.883294 -31.653790 -77.235949 2.515306 6.802439 -61.653650 4.535824 -11.845670 122.247326 -3.721120 -10.793906 -2.426630 0.000000 0.000000 0.000000 -6.047468 10.145197 -48.388115 38.703739 -24.980787 82.638472 -18.317857 -35.200887 17.483160 0.000000 0.000000 0.000000 -6.078989 8.231181 -46.048493 9.070663 -3.887001 34.051503 -11.379619 -11.676318 27.336562 -0.822261 -0.383911 6.037096 0.000000 0.000000 0.000000 17.775022 -23.140708 2.826255 -31.166458 -52.073357 11.186606 24.355040 -39.757088 -6.043208 0.000000 0.000000 0.000000 -13.097469 -6.985093 -0.605701 43.873956 -33.222239 -19.621011 85.893732 41.963303 30.541108 0.000000 0.000000 0.000000
-0.274569 0.177378 1.330615 0.426904 -32.065893 -77.928654 1.157536 6.056432 -59.094873 6.203927 -11.909727 121.705001 -1.515281 -10.295466 -8.628069 0.000000 0.000000 0.000000 -4.009843 12.177088 -49.977925 36.702067 -22.653384 82.339785 -21.861503 -38.106959 23.808244 0.000000 0.000000 0.000000 -5.126308 9.525996 -46.766352 8.010641 -2.473250 37.517533 -11.846983 -12.471617 24.394623 -4.155468 5.476435 17.615236 0.000000 0.000000 0.000000 11.827333 -19.851515 4.031973 -38.277658 -51.803605 13.338188 19.612323 -41.962490 -4.203162 0.000000 0.000000 0.000000 -10.587368 -7.054274 -1.308389 41.931046 -35.497866 -18.834688 89.094302 44.755659 35.586476 0.000000 0.000000 0.000000
-0.272235 0.187173 1.319489 -0.205568 -31.725423 -76.795314 1.321145 6.203570 -59.958001 5.548451 -12.911732 124.471829 -1.943779 -13.103489 -9.975246 0.000000 0.000000 0.000000 -3.952637 12.900145 -51.954630 32.004448 -19.421488 83.390373 -22.019479 -36.262621 30.376315 0.000000 0.000000 0.000000 -8.377192 8.626270 -50.006118 6.707783 -1.365537 43.016438 -6.721515 -11.449997 19.040703 -6.544907 8.576922 18.531390 0.000000 0.000000 0.000000 11.841001 -18.017538 3.878671 -54.204356 -49.366859 19.204735 34.257499 -40.506631 -8.778166 0.000000 0.000000 0.000000 -11.986515 -7.566369 -1.089681 47.412534 -37.575786 -22.030807 86.912916 41.980697 33.416098 0.000000 0.000000 0.000000
-0.270843 0.194186 1.310672 -1.000331 -31.194821 -77.146388 4.270610 7.464410 -56.459027 3.082973 -10.136697 126.710407 1.704873 -5.777273 -14.337226 0.000000 0.000000 0.000000 -2.293800 13.566898 -51.478729 24.764603 -15.095821 89.750120 -22.302346 -36.667669 29.574622 0.000000 0.000000 0.000000 -10.037728 7.131228 -48.811581 3.148094 1.592387 41.230882 -2.422860 -8.799387 20.424348 -7.981736 10.737053 20.470084 0.000000 0.000000 0.000000 9.918628 -18.348052 4.766102 -59.820716 -42.990473 16.470439 48.016429 -47.723710 -15.312552 0.000000 0.000000 0.000000 -8.924236 -4.401706 -1.022734 52.899475 -42.680654 -26.824627 91.257094 44.764494 40.243859 0.000000 0.000000 0.000000
-0.268942 0.200099 1.303939 -1.869556 -31.662634 -76.947899 6.400040 8.676086 -54.620831 6.855242 -20.867273 126.217002 0.890145 -12.921183 -18.114861 0.000000 0.000000 0.000000 0.128324 14.949208 -51.149913 19.478580 -11.449405 97.242167 -17.868171 -33.303591 21.528019 0.000000 0.000000 0.000000 -12.677270 6.048482 -49.995196 3.351783 1.258444 42.950206 -1.146067 -7.754037 19.326663 -9.463694 10.155074 10.989893 0.000000 0.000000 0.000000 11.929201 -9.203226 1.735465 -76.338162 -35.510543 18.409782 56.325706 -58.139839 -22.961394 0.000000 0.000000 0.000000 -9.060642 -5.863851 -1.425218 60.903653 -43.845551 -32.313780 89.952794 37.065043 32.169808 0.000000 0.000000 0.000000
-0.264816 0.203138 1.298058 -3.983210 -32.462266 -75.858841 8.379684 9.936087 -54.221638 7.669795 -23.991188 123.843763 0.243351 -9.606374 -13.625180 0.000000 0.000000 0.000000 1.111247 15.030048 -49.863009 18.321802 -10.380783 96.240162 -16.245082 -30.902329 21.923237 0.000000 0.000000 0.000000 -16.463294 4.079436 -50.580786 4.104066 -0.228075 38.511449 -0.866352 -3.862061 24.061307 -6.055542 5.608061 5.571576 0.000000 0.000000 0.000000 15.240943 -9.622687 1.481571 -80.781169 -27.454060 12.459440 54.241933 -69.909963 -28.386656 0.000000 0.000000 0.000000 -6.188768 -6.639632 -2.435801 64.790924 -45.326395 -35.258378 91.369922 33.421355 29.973562 0.000000 0.000000 0.000000
-0.257998 0.205974 1.292215 -4.626310 -33.668068 -76.147000 8.843027 9.628396 -50.767030 10.731137 -25.937855 119.756127 2.147389 -11.632977 -21.397383 0.000000 0.000000 0.000000 -0.454457 13.112082 -47.064737 21.163684 -11.066544 92.649693 -17.689812 -33.163484 21.233166 0.000000 0.000000 0.000000 -17.074905 3.718268 -50.463207 4.202114 -0.353823 36.522020 -1.293552 -3.566325 26.431643 -3.988467 3.287801 3.623347 0.000000 0.000000 0.000000 16.011656 -7.210197 0.686917 -81.545033 -19.644449 6.328036 20.578047 -77.357325 -5.798461 0.000000 0.000000 0.000000 -7.397587 -6.681792 -2.200424 67.243095 -46.625778 -38.548598 88.123281 26.200814 20.570359 0.000000 0.000000 0.000000
